<mxfile host="app.diagrams.net" modified="2024-01-04T17:46:04.188Z" agent="Mozilla/5.0 (Macintosh; Intel Mac OS X 10.15; rv:109.0) Gecko/20100101 Firefox/119.0" version="22.1.16" etag="QvCpeOPii_PzD4wpZBcG" type="github">
  <diagram name="Page-1" id="MAb1IGYDh1-1w9ULgDOm">
    <mxGraphModel>
      <root>
        <mxCell id="0" />
        <mxCell id="1" parent="0" />
      </root>
    </mxGraphModel>
  </diagram>
</mxfile>
